<?xml version="1.0" standalone="no"?>
<!DOCTYPE svg PUBLIC "-//W3C//DTD SVG 20010904//EN"
 "http://www.w3.org/TR/2001/REC-SVG-20010904/DTD/svg10.dtd">
<svg version="1.0" xmlns="http://www.w3.org/2000/svg"
 width="300.000000pt" height="133.000000pt" viewBox="0 0 300.000000 133.000000"
 preserveAspectRatio="xMidYMid meet">
<metadata>
Created by potrace 1.10, written by Peter Selinger 2001-2011
</metadata>
<g transform="translate(0.000000,133.000000) scale(0.100000,-0.100000)"
fill="#000000" stroke="none">
<path d="M950 1081 c0 -21 -3 -53 -6 -70 l-6 -31 -74 0 -73 0 -3 58 -3 57 -5
-60 c-3 -33 -2 -103 1 -155 l5 -95 2 93 2 92 75 0 c73 0 75 -1 71 -22 -3 -13
-7 -50 -10 -83 -9 -110 10 -12 40 208 4 32 3 47 -5 47 -6 0 -11 -17 -11 -39z"/>
<path d="M1446 998 c-3 -62 -4 -126 -2 -143 20 -123 29 -165 37 -165 13 0 44
67 69 149 12 40 24 80 27 87 3 8 0 14 -6 14 -6 0 -11 -6 -11 -13 0 -12 -39
-137 -60 -193 -6 -15 -13 -24 -16 -21 -3 2 -12 47 -19 98 -13 87 -13 119 1
252 2 26 1 47 -4 47 -5 0 -12 -51 -16 -112z"/>
<path d="M1885 1068 c-2 -13 -6 -36 -7 -53 l-3 -30 -68 0 c-47 0 -67 -4 -67
-12 0 -7 -7 -13 -15 -13 -45 0 -89 -44 -78 -77 6 -16 59 -17 68 -2 5 6 13 2
22 -11 17 -24 64 -24 71 0 4 12 2 13 -9 3 -19 -19 -47 -16 -54 6 -3 10 2 35
12 55 16 34 19 36 65 36 l48 0 0 -35 c0 -19 5 -35 10 -35 6 0 8 10 4 24 -3 15
1 29 11 40 10 10 12 16 5 16 -9 0 -10 15 -5 55 6 54 0 76 -10 33z m-145 -133
c0 -20 -40 -55 -62 -55 -28 0 -22 37 10 54 35 19 52 20 52 1z"/>
<path d="M1190 969 c-35 -14 -70 -49 -70 -71 0 -15 8 -18 44 -18 25 0 48 5 51
10 5 8 11 7 21 -1 15 -12 44 -6 44 10 0 5 -9 7 -20 4 -17 -5 -20 0 -20 30 0
31 3 36 28 40 19 3 16 4 -13 5 -22 0 -51 -4 -65 -9z m22 -33 c6 -31 -8 -46
-44 -46 -36 0 -37 22 -2 49 34 27 41 26 46 -3z"/>
<path d="M1513 951 c-31 -20 -59 -58 -50 -68 3 -2 11 5 17 17 14 26 68 60 97
60 41 0 43 -95 2 -124 -12 -8 -16 -17 -11 -20 6 -3 20 6 32 21 16 21 20 38 18
77 -3 50 -3 51 -38 54 -21 1 -47 -5 -67 -17z"/>
<path d="M2020 727 c0 -50 -6 -102 -16 -130 -9 -26 -14 -52 -12 -59 2 -6 14
20 26 58 23 73 31 214 12 214 -6 0 -10 -34 -10 -83z"/>
<path d="M1891 669 l-12 -61 -46 7 c-31 4 -43 3 -38 -4 3 -6 23 -11 44 -11 36
0 37 -1 33 -34 -2 -19 1 -37 8 -41 9 -5 10 -1 5 14 -9 28 2 59 23 64 16 4 16
5 0 6 -10 0 -18 2 -18 4 0 1 7 26 14 54 8 29 11 55 6 58 -4 2 -13 -23 -19 -56z"/>
<path d="M1264 643 l-9 -68 -45 -3 c-25 -2 -49 -8 -55 -13 -6 -6 10 -8 43 -6
l53 3 -6 -28 c-4 -17 -2 -28 4 -28 6 0 11 14 11 30 0 23 6 33 24 40 13 5 27
14 31 19 8 14 -1 14 -25 1 -18 -10 -19 -7 -13 55 8 86 -2 84 -13 -2z"/>
<path d="M868 625 c-3 -6 -9 -29 -13 -52 -4 -24 -10 -43 -13 -43 -4 0 -7 -16
-8 -35 0 -19 3 -35 8 -35 4 0 8 11 8 25 0 24 3 25 55 25 42 0 55 -4 55 -15 0
-29 73 -31 108 -3 30 25 3 84 -35 75 -15 -3 -13 -6 10 -15 48 -20 24 -62 -36
-62 -34 0 -38 9 -21 41 8 16 10 29 5 29 -5 0 -13 -9 -16 -20 -5 -17 -15 -20
-63 -20 -41 0 -53 3 -42 10 9 6 10 10 3 10 -8 0 -9 10 -2 36 10 35 8 67 -3 49z"/>
<path d="M1434 587 c-17 -18 -37 -41 -45 -51 -13 -18 -12 -19 29 -13 l42 7 0
-36 c0 -31 2 -35 15 -24 8 7 15 20 15 29 0 14 -2 14 -10 1 -8 -12 -10 -10 -10
11 0 34 -7 40 -36 29 -34 -13 -30 3 11 38 19 17 31 33 26 36 -4 3 -21 -9 -37
-27z"/>
<path d="M1326 552 c-18 -65 -21 -97 -7 -72 12 21 34 120 29 126 -3 2 -13 -22
-22 -54z"/>
<path d="M1516 592 c-10 -17 -18 -87 -8 -77 5 6 13 27 16 48 6 35 3 47 -8 29z"/>
<path d="M1673 578 c-5 -7 -21 -33 -34 -57 l-24 -44 -6 39 -6 39 -2 -47 c0
-27 3 -48 8 -48 11 0 85 119 79 126 -3 2 -10 -1 -15 -8z"/>
<path d="M1778 539 c-22 -37 -45 -38 -51 -1 -3 22 -4 20 -6 -10 -1 -41 11 -48
45 -24 13 10 23 11 31 4 10 -8 12 -3 7 23 -4 19 -7 35 -8 36 -1 1 -9 -12 -18
-28z"/>
</g>
</svg>
