<svg width="968" height="529" viewBox="0 0 968 529" fill="none" xmlns="http://www.w3.org/2000/svg">
<g clip-path="url(#clip0_8_2)">
<path d="M360.753 417.275L359.665 416.137L364.09 347.84L414.2 329.602L418.095 261.637L467.557 243.634L471.667 177.281L587.832 135L588.529 136.916L472.715 179.069L468.605 245.423L419.146 263.425L415.251 331.389L365.137 349.629L360.753 417.275Z" fill="#3F3D56"/>
<path d="M758.407 206.063L759.104 204.652L824.796 185.451L859.073 226.301L924.271 206.715L958.105 247.037L1021.86 228.205L1101.32 322.904L1099.76 324.214L1020.54 229.801L956.783 248.634L922.951 208.314L857.753 227.9L823.472 187.046L758.407 206.063Z" fill="#3F3D56"/>
</g>
<defs>
<clipPath id="clip0_8_2">
<rect width="967.972" height="529" fill="white"/>
</clipPath>
</defs>
</svg>
